# xmcd CD database file
#
# Track frame offsets:
#	150
#	18307
#	47797
#	76575
#	157330
#	189605
#
# Disc length: 3026 seconds
#
# Revision: 0
# Processed by: cddbd v1.5.1PL0 Copyright (c) Steve Scherf et al.
# Submitted via: CDex 1.51
#
DISCID=430bd006
DTITLE=Little Milton - The Blues Is Alright - Live At Kalamazoo [CD1)
DYEAR=2004
DGENRE=Blues
TTITLE0=Still Some Meat Left On This Bone
TTITLE1=Just One Moment
TTITLE2=I Don't Believe In Ghosts
TTITLE3=Slow Blues Medley: Catch You On Your Way Down - Annie Mae's Cafe - Little Bluebird
TTITLE4=I Wouldn't Take Nothing For Your Love
TTITLE5=The Blues Is Alright
EXTD=YEAR: 2004
EXTT0=
EXTT1=
EXTT2=
EXTT3=
EXTT4=
EXTT5=
PLAYORDER=
